# xmcd
#
# Track frame offsets:
#	150
#	23246
#	52921
#	86577
#	104975
#	135221
#	154078
#	180898
#
# Disc length: 2684 seconds
#
# Revision: 1
# Processed by: cddbd v1.5.1PL2 Copyright (c) Steve Scherf et al.
# Submitted via: audiograbber 1.83.01
#
DISCID=590a7a08
DTITLE=Big Mama Thornton - Sassy Mama
DYEAR=2005
DGENRE=Blues
TTITLE0=Tell Me Pretty Baby
TTITLE1=Rock Me Baby
TTITLE2=Ball And Chain
TTITLE3=Watermellon Man
TTITLE4=Summertime
TTITLE5=Hound Dog - Walkin' The Dog
TTITLE6=Sweet Little Angel - Three O'Clock Blues
TTITLE7=Sassy Mama
EXTD=
EXTT0=
EXTT1=
EXTT2=
EXTT3=
EXTT4=
EXTT5=
EXTT6=
EXTT7=
PLAYORDER=
